<mxfile host="app.diagrams.net" modified="2024-02-04T20:26:26.710Z" agent="Mozilla/5.0 (Macintosh; Intel Mac OS X 10_15_7) AppleWebKit/537.36 (KHTML, like Gecko) Chrome/117.0.0.0 Safari/537.36" etag="83LWJcGL0g4fYzEQXIXD" version="23.1.1" type="device">
  <diagram name="Page-1" id="xjPlncjGIch8fFRQZKFP">
    <mxGraphModel dx="1224" dy="2225" grid="1" gridSize="10" guides="0" tooltips="1" connect="0" arrows="1" fold="1" page="1" pageScale="1" pageWidth="850" pageHeight="1100" math="0" shadow="0">
      <root>
        <mxCell id="0" />
        <mxCell id="1" parent="0" />
        <mxCell id="ugCTj8qG3ddIw2w_gFLn-64" style="rounded=0;orthogonalLoop=1;jettySize=auto;html=1;entryX=0;entryY=0.5;entryDx=0;entryDy=0;" parent="1" source="ugCTj8qG3ddIw2w_gFLn-18" target="ugCTj8qG3ddIw2w_gFLn-21" edge="1">
          <mxGeometry relative="1" as="geometry" />
        </mxCell>
        <mxCell id="ugCTj8qG3ddIw2w_gFLn-65" style="rounded=0;orthogonalLoop=1;jettySize=auto;html=1;entryX=0;entryY=0.5;entryDx=0;entryDy=0;" parent="1" source="ugCTj8qG3ddIw2w_gFLn-18" target="ugCTj8qG3ddIw2w_gFLn-24" edge="1">
          <mxGeometry relative="1" as="geometry" />
        </mxCell>
        <mxCell id="ugCTj8qG3ddIw2w_gFLn-66" style="rounded=0;orthogonalLoop=1;jettySize=auto;html=1;entryX=0;entryY=0.5;entryDx=0;entryDy=0;" parent="1" source="ugCTj8qG3ddIw2w_gFLn-18" target="ugCTj8qG3ddIw2w_gFLn-26" edge="1">
          <mxGeometry relative="1" as="geometry" />
        </mxCell>
        <mxCell id="ugCTj8qG3ddIw2w_gFLn-67" style="rounded=0;orthogonalLoop=1;jettySize=auto;html=1;entryX=0;entryY=0.5;entryDx=0;entryDy=0;" parent="1" source="ugCTj8qG3ddIw2w_gFLn-18" target="ugCTj8qG3ddIw2w_gFLn-59" edge="1">
          <mxGeometry relative="1" as="geometry" />
        </mxCell>
        <mxCell id="ugCTj8qG3ddIw2w_gFLn-71" style="rounded=0;orthogonalLoop=1;jettySize=auto;html=1;entryX=0;entryY=0.5;entryDx=0;entryDy=0;" parent="1" source="ugCTj8qG3ddIw2w_gFLn-18" target="ugCTj8qG3ddIw2w_gFLn-69" edge="1">
          <mxGeometry relative="1" as="geometry" />
        </mxCell>
        <mxCell id="ugCTj8qG3ddIw2w_gFLn-18" value="Student" style="text;html=1;strokeColor=none;fillColor=none;align=center;verticalAlign=middle;whiteSpace=wrap;rounded=0;" parent="1" vertex="1">
          <mxGeometry x="880" y="25" width="60" height="30" as="geometry" />
        </mxCell>
        <mxCell id="ugCTj8qG3ddIw2w_gFLn-68" style="rounded=0;orthogonalLoop=1;jettySize=auto;html=1;entryX=0;entryY=0.5;entryDx=0;entryDy=0;" parent="1" source="ugCTj8qG3ddIw2w_gFLn-19" target="ugCTj8qG3ddIw2w_gFLn-21" edge="1">
          <mxGeometry relative="1" as="geometry" />
        </mxCell>
        <mxCell id="ugCTj8qG3ddIw2w_gFLn-70" style="rounded=0;orthogonalLoop=1;jettySize=auto;html=1;entryX=0;entryY=0.5;entryDx=0;entryDy=0;" parent="1" source="ugCTj8qG3ddIw2w_gFLn-19" target="ugCTj8qG3ddIw2w_gFLn-23" edge="1">
          <mxGeometry relative="1" as="geometry" />
        </mxCell>
        <mxCell id="ugCTj8qG3ddIw2w_gFLn-84" style="rounded=0;orthogonalLoop=1;jettySize=auto;html=1;entryX=0;entryY=0.5;entryDx=0;entryDy=0;" parent="1" source="ugCTj8qG3ddIw2w_gFLn-19" target="ugCTj8qG3ddIw2w_gFLn-60" edge="1">
          <mxGeometry relative="1" as="geometry" />
        </mxCell>
        <mxCell id="hisHGDNG1swyCPzcrm-j-22" style="rounded=0;orthogonalLoop=1;jettySize=auto;html=1;entryX=0.005;entryY=0.509;entryDx=0;entryDy=0;entryPerimeter=0;" parent="1" source="ugCTj8qG3ddIw2w_gFLn-19" target="ugCTj8qG3ddIw2w_gFLn-27" edge="1">
          <mxGeometry relative="1" as="geometry">
            <mxPoint x="1030" y="270" as="targetPoint" />
          </mxGeometry>
        </mxCell>
        <mxCell id="ugCTj8qG3ddIw2w_gFLn-19" value="Faculty" style="text;html=1;strokeColor=none;fillColor=none;align=center;verticalAlign=middle;whiteSpace=wrap;rounded=0;" parent="1" vertex="1">
          <mxGeometry x="880" y="335" width="60" height="30" as="geometry" />
        </mxCell>
        <mxCell id="ugCTj8qG3ddIw2w_gFLn-89" style="rounded=0;orthogonalLoop=1;jettySize=auto;html=1;entryX=0;entryY=0.5;entryDx=0;entryDy=0;" parent="1" source="ugCTj8qG3ddIw2w_gFLn-20" target="ugCTj8qG3ddIw2w_gFLn-25" edge="1">
          <mxGeometry relative="1" as="geometry" />
        </mxCell>
        <mxCell id="ugCTj8qG3ddIw2w_gFLn-90" style="rounded=0;orthogonalLoop=1;jettySize=auto;html=1;entryX=0;entryY=0.5;entryDx=0;entryDy=0;" parent="1" source="ugCTj8qG3ddIw2w_gFLn-20" target="ugCTj8qG3ddIw2w_gFLn-28" edge="1">
          <mxGeometry relative="1" as="geometry" />
        </mxCell>
        <mxCell id="ugCTj8qG3ddIw2w_gFLn-92" style="rounded=0;orthogonalLoop=1;jettySize=auto;html=1;entryX=0;entryY=0.5;entryDx=0;entryDy=0;" parent="1" source="ugCTj8qG3ddIw2w_gFLn-20" target="ugCTj8qG3ddIw2w_gFLn-85" edge="1">
          <mxGeometry relative="1" as="geometry" />
        </mxCell>
        <mxCell id="ugCTj8qG3ddIw2w_gFLn-93" style="rounded=0;orthogonalLoop=1;jettySize=auto;html=1;entryX=0;entryY=0.5;entryDx=0;entryDy=0;" parent="1" source="ugCTj8qG3ddIw2w_gFLn-20" target="ugCTj8qG3ddIw2w_gFLn-86" edge="1">
          <mxGeometry relative="1" as="geometry" />
        </mxCell>
        <mxCell id="ugCTj8qG3ddIw2w_gFLn-94" style="rounded=0;orthogonalLoop=1;jettySize=auto;html=1;entryX=0;entryY=0.5;entryDx=0;entryDy=0;" parent="1" source="ugCTj8qG3ddIw2w_gFLn-20" target="ugCTj8qG3ddIw2w_gFLn-87" edge="1">
          <mxGeometry relative="1" as="geometry" />
        </mxCell>
        <mxCell id="ugCTj8qG3ddIw2w_gFLn-95" style="rounded=0;orthogonalLoop=1;jettySize=auto;html=1;entryX=0;entryY=0.5;entryDx=0;entryDy=0;" parent="1" source="ugCTj8qG3ddIw2w_gFLn-20" target="ugCTj8qG3ddIw2w_gFLn-88" edge="1">
          <mxGeometry relative="1" as="geometry" />
        </mxCell>
        <mxCell id="ugCTj8qG3ddIw2w_gFLn-20" value="Adminisstrators" style="text;html=1;align=center;verticalAlign=middle;resizable=0;points=[];autosize=1;strokeColor=none;fillColor=none;" parent="1" vertex="1">
          <mxGeometry x="855" y="670" width="110" height="30" as="geometry" />
        </mxCell>
        <mxCell id="ugCTj8qG3ddIw2w_gFLn-21" value="Modify the courses (Add/ Drop/ reschedule)" style="ellipse;whiteSpace=wrap;html=1;" parent="1" vertex="1">
          <mxGeometry x="1080" y="-160" width="200" height="55" as="geometry" />
        </mxCell>
        <mxCell id="ugCTj8qG3ddIw2w_gFLn-78" style="rounded=0;orthogonalLoop=1;jettySize=auto;html=1;entryX=0;entryY=0.5;entryDx=0;entryDy=0;" parent="1" source="ugCTj8qG3ddIw2w_gFLn-23" target="ugCTj8qG3ddIw2w_gFLn-72" edge="1">
          <mxGeometry relative="1" as="geometry" />
        </mxCell>
        <mxCell id="ugCTj8qG3ddIw2w_gFLn-79" style="rounded=0;orthogonalLoop=1;jettySize=auto;html=1;entryX=0;entryY=0.5;entryDx=0;entryDy=0;" parent="1" source="ugCTj8qG3ddIw2w_gFLn-23" target="ugCTj8qG3ddIw2w_gFLn-73" edge="1">
          <mxGeometry relative="1" as="geometry" />
        </mxCell>
        <mxCell id="ugCTj8qG3ddIw2w_gFLn-80" style="rounded=0;orthogonalLoop=1;jettySize=auto;html=1;entryX=0;entryY=0.5;entryDx=0;entryDy=0;" parent="1" source="ugCTj8qG3ddIw2w_gFLn-23" target="ugCTj8qG3ddIw2w_gFLn-74" edge="1">
          <mxGeometry relative="1" as="geometry" />
        </mxCell>
        <mxCell id="ugCTj8qG3ddIw2w_gFLn-81" style="rounded=0;orthogonalLoop=1;jettySize=auto;html=1;entryX=0;entryY=0.5;entryDx=0;entryDy=0;" parent="1" source="ugCTj8qG3ddIw2w_gFLn-23" target="ugCTj8qG3ddIw2w_gFLn-75" edge="1">
          <mxGeometry relative="1" as="geometry" />
        </mxCell>
        <mxCell id="ugCTj8qG3ddIw2w_gFLn-82" style="rounded=0;orthogonalLoop=1;jettySize=auto;html=1;entryX=0;entryY=0.5;entryDx=0;entryDy=0;" parent="1" source="ugCTj8qG3ddIw2w_gFLn-23" target="ugCTj8qG3ddIw2w_gFLn-76" edge="1">
          <mxGeometry relative="1" as="geometry" />
        </mxCell>
        <mxCell id="ugCTj8qG3ddIw2w_gFLn-83" style="rounded=0;orthogonalLoop=1;jettySize=auto;html=1;entryX=0;entryY=0.5;entryDx=0;entryDy=0;" parent="1" source="ugCTj8qG3ddIw2w_gFLn-23" target="ugCTj8qG3ddIw2w_gFLn-77" edge="1">
          <mxGeometry relative="1" as="geometry" />
        </mxCell>
        <mxCell id="ugCTj8qG3ddIw2w_gFLn-23" value="View menu of courses they are teaching" style="ellipse;whiteSpace=wrap;html=1;" parent="1" vertex="1">
          <mxGeometry x="1080" y="322.5" width="200" height="55" as="geometry" />
        </mxCell>
        <mxCell id="ugCTj8qG3ddIw2w_gFLn-24" value="Apply course overload" style="ellipse;whiteSpace=wrap;html=1;" parent="1" vertex="1">
          <mxGeometry x="1080" y="-75" width="200" height="55" as="geometry" />
        </mxCell>
        <mxCell id="ugCTj8qG3ddIw2w_gFLn-25" value="Add new courses to the current set of course offerings&lt;span style=&quot;font-size: medium; text-align: start;&quot;&gt;&lt;/span&gt;" style="ellipse;whiteSpace=wrap;html=1;" parent="1" vertex="1">
          <mxGeometry x="1080" y="490" width="200" height="55" as="geometry" />
        </mxCell>
        <mxCell id="ugCTj8qG3ddIw2w_gFLn-26" value="View/print schedule" style="ellipse;whiteSpace=wrap;html=1;" parent="1" vertex="1">
          <mxGeometry x="1080" y="12.5" width="200" height="55" as="geometry" />
        </mxCell>
        <mxCell id="ugCTj8qG3ddIw2w_gFLn-27" value="Retrieve a list of registered students in their course" style="ellipse;whiteSpace=wrap;html=1;" parent="1" vertex="1">
          <mxGeometry x="1080" y="240" width="200" height="55" as="geometry" />
        </mxCell>
        <mxCell id="ugCTj8qG3ddIw2w_gFLn-28" value="Schedule courses and sections&lt;span style=&quot;font-size: medium; text-align: start;&quot;&gt;&lt;/span&gt;" style="ellipse;whiteSpace=wrap;html=1;" parent="1" vertex="1">
          <mxGeometry x="1080" y="575" width="200" height="55" as="geometry" />
        </mxCell>
        <mxCell id="ugCTj8qG3ddIw2w_gFLn-57" value="REGIE" style="text;html=1;align=center;verticalAlign=middle;resizable=0;points=[];autosize=1;strokeColor=none;fillColor=none;" parent="1" vertex="1">
          <mxGeometry x="1300" y="-220" width="60" height="30" as="geometry" />
        </mxCell>
        <mxCell id="ugCTj8qG3ddIw2w_gFLn-59" value="Search courses" style="ellipse;whiteSpace=wrap;html=1;" parent="1" vertex="1">
          <mxGeometry x="1080" y="167.5" width="200" height="55" as="geometry" />
        </mxCell>
        <mxCell id="ugCTj8qG3ddIw2w_gFLn-60" value="Report the grades" style="ellipse;whiteSpace=wrap;html=1;" parent="1" vertex="1">
          <mxGeometry x="1080" y="400" width="200" height="55" as="geometry" />
        </mxCell>
        <mxCell id="ugCTj8qG3ddIw2w_gFLn-61" value="Delete courses for which there are fewer than 5 students or for which an instructor is unavailable.&lt;span style=&quot;font-size: medium; text-align: start;&quot;&gt;&lt;/span&gt;" style="ellipse;whiteSpace=wrap;html=1;" parent="1" vertex="1">
          <mxGeometry x="1080" y="645" width="200" height="55" as="geometry" />
        </mxCell>
        <mxCell id="ugCTj8qG3ddIw2w_gFLn-69" value="Print transcript" style="ellipse;whiteSpace=wrap;html=1;" parent="1" vertex="1">
          <mxGeometry x="1080" y="90" width="200" height="55" as="geometry" />
        </mxCell>
        <mxCell id="ugCTj8qG3ddIw2w_gFLn-72" value="Send an email to registered students&amp;nbsp;" style="ellipse;whiteSpace=wrap;html=1;" parent="1" vertex="1">
          <mxGeometry x="1400" y="167.5" width="200" height="55" as="geometry" />
        </mxCell>
        <mxCell id="ugCTj8qG3ddIw2w_gFLn-73" value="Request an online roster of currently registered students&lt;span style=&quot;font-size: medium; text-align: start;&quot;&gt;&lt;/span&gt;" style="ellipse;whiteSpace=wrap;html=1;" parent="1" vertex="1">
          <mxGeometry x="1400" y="242.5" width="200" height="55" as="geometry" />
        </mxCell>
        <mxCell id="ugCTj8qG3ddIw2w_gFLn-74" value="Request a snail mail roster of registered students with photos&lt;span style=&quot;font-size: medium; text-align: start;&quot;&gt;&lt;/span&gt;" style="ellipse;whiteSpace=wrap;html=1;" parent="1" vertex="1">
          <mxGeometry x="1400" y="320" width="200" height="55" as="geometry" />
        </mxCell>
        <mxCell id="ugCTj8qG3ddIw2w_gFLn-75" value="Approve/Deny requests for registration in Instructor Permission Required courses&lt;span style=&quot;font-size: medium; text-align: start;&quot;&gt;&lt;/span&gt;" style="ellipse;whiteSpace=wrap;html=1;" parent="1" vertex="1">
          <mxGeometry x="1400" y="400" width="200" height="55" as="geometry" />
        </mxCell>
        <mxCell id="ugCTj8qG3ddIw2w_gFLn-76" value="Adjust modifiable course features such as Instructor&#39;s Approval Required, etc.&lt;span style=&quot;font-size: medium; text-align: start;&quot;&gt;&lt;/span&gt;" style="ellipse;whiteSpace=wrap;html=1;" parent="1" vertex="1">
          <mxGeometry x="1400" y="475" width="200" height="55" as="geometry" />
        </mxCell>
        <mxCell id="ugCTj8qG3ddIw2w_gFLn-77" value="Go to the grade disposition spreadsheet&lt;span style=&quot;font-size: medium; text-align: start;&quot;&gt;&lt;/span&gt;" style="ellipse;whiteSpace=wrap;html=1;" parent="1" vertex="1">
          <mxGeometry x="1400" y="550" width="200" height="55" as="geometry" />
        </mxCell>
        <mxCell id="ugCTj8qG3ddIw2w_gFLn-85" value="Add/delete/modify students in the system&lt;span style=&quot;font-size: medium; text-align: start;&quot;&gt;&lt;/span&gt;" style="ellipse;whiteSpace=wrap;html=1;" parent="1" vertex="1">
          <mxGeometry x="1080" y="725" width="200" height="55" as="geometry" />
        </mxCell>
        <mxCell id="ugCTj8qG3ddIw2w_gFLn-86" value="Add/delete/modify instructors (including professors/instructors of all ranks) in the system&lt;span style=&quot;font-size: medium; text-align: start;&quot;&gt;&lt;/span&gt;" style="ellipse;whiteSpace=wrap;html=1;" parent="1" vertex="1">
          <mxGeometry x="1080" y="810" width="200" height="55" as="geometry" />
        </mxCell>
        <mxCell id="ugCTj8qG3ddIw2w_gFLn-87" value="Close registration for a course or set of courses&lt;span style=&quot;font-size: medium; text-align: start;&quot;&gt;&lt;/span&gt;" style="ellipse;whiteSpace=wrap;html=1;" parent="1" vertex="1">
          <mxGeometry x="1080" y="890" width="200" height="55" as="geometry" />
        </mxCell>
        <mxCell id="ugCTj8qG3ddIw2w_gFLn-88" value="Maintain building/time resources for the system&lt;span style=&quot;font-size: medium; text-align: start;&quot;&gt;&lt;/span&gt;" style="ellipse;whiteSpace=wrap;html=1;" parent="1" vertex="1">
          <mxGeometry x="1080" y="970" width="200" height="55" as="geometry" />
        </mxCell>
        <mxCell id="ugCTj8qG3ddIw2w_gFLn-91" style="rounded=0;orthogonalLoop=1;jettySize=auto;html=1;entryX=-0.022;entryY=0.514;entryDx=0;entryDy=0;entryPerimeter=0;" parent="1" source="ugCTj8qG3ddIw2w_gFLn-20" target="ugCTj8qG3ddIw2w_gFLn-61" edge="1">
          <mxGeometry relative="1" as="geometry" />
        </mxCell>
        <mxCell id="ugCTj8qG3ddIw2w_gFLn-96" value="" style="rounded=1;whiteSpace=wrap;html=1;fillColor=none;" parent="1" vertex="1">
          <mxGeometry x="1050" y="-240" width="590" height="1290" as="geometry" />
        </mxCell>
        <mxCell id="hisHGDNG1swyCPzcrm-j-62" value="&lt;font style=&quot;font-size: 44px;&quot;&gt;Deliverable One:&lt;/font&gt;" style="text;html=1;align=center;verticalAlign=middle;resizable=0;points=[];autosize=1;strokeColor=none;fillColor=none;" parent="1" vertex="1">
          <mxGeometry x="880" y="-400" width="350" height="70" as="geometry" />
        </mxCell>
        <mxCell id="hisHGDNG1swyCPzcrm-j-63" value="&lt;font style=&quot;font-size: 44px;&quot;&gt;Deliverable Two:&lt;/font&gt;" style="text;html=1;align=center;verticalAlign=middle;resizable=0;points=[];autosize=1;strokeColor=none;fillColor=none;" parent="1" vertex="1">
          <mxGeometry x="880" y="1120" width="350" height="70" as="geometry" />
        </mxCell>
        <mxCell id="hisHGDNG1swyCPzcrm-j-64" value="Focus on Course Management" style="text;html=1;align=center;verticalAlign=middle;resizable=0;points=[];autosize=1;strokeColor=none;fillColor=none;" parent="1" vertex="1">
          <mxGeometry x="920" y="1210" width="190" height="30" as="geometry" />
        </mxCell>
        <mxCell id="hisHGDNG1swyCPzcrm-j-67" value="Administrator" style="text;html=1;align=center;verticalAlign=middle;resizable=0;points=[];autosize=1;strokeColor=none;fillColor=none;" parent="1" vertex="1">
          <mxGeometry x="970" y="1860" width="90" height="30" as="geometry" />
        </mxCell>
        <mxCell id="hisHGDNG1swyCPzcrm-j-78" value="Boundary Object" style="text;html=1;align=center;verticalAlign=middle;resizable=0;points=[];autosize=1;strokeColor=none;fillColor=none;" parent="1" vertex="1">
          <mxGeometry x="1030" y="1348" width="110" height="30" as="geometry" />
        </mxCell>
        <mxCell id="hisHGDNG1swyCPzcrm-j-79" value="Control Object" style="text;html=1;align=center;verticalAlign=middle;resizable=0;points=[];autosize=1;strokeColor=none;fillColor=none;" parent="1" vertex="1">
          <mxGeometry x="1190" y="1348" width="100" height="30" as="geometry" />
        </mxCell>
        <mxCell id="hisHGDNG1swyCPzcrm-j-82" value="Entity Object" style="text;html=1;align=center;verticalAlign=middle;resizable=0;points=[];autosize=1;strokeColor=none;fillColor=none;" parent="1" vertex="1">
          <mxGeometry x="1360" y="1350" width="90" height="30" as="geometry" />
        </mxCell>
        <mxCell id="hisHGDNG1swyCPzcrm-j-83" value="User" style="text;html=1;align=center;verticalAlign=middle;resizable=0;points=[];autosize=1;strokeColor=none;fillColor=none;" parent="1" vertex="1">
          <mxGeometry x="933" y="1349" width="50" height="30" as="geometry" />
        </mxCell>
        <mxCell id="hisHGDNG1swyCPzcrm-j-118" style="edgeStyle=orthogonalEdgeStyle;rounded=0;orthogonalLoop=1;jettySize=auto;html=1;" parent="1" edge="1">
          <mxGeometry relative="1" as="geometry">
            <mxPoint x="1140" y="1830" as="targetPoint" />
            <mxPoint x="1030" y="1830.0588235294117" as="sourcePoint" />
          </mxGeometry>
        </mxCell>
        <mxCell id="hisHGDNG1swyCPzcrm-j-119" style="edgeStyle=orthogonalEdgeStyle;rounded=0;orthogonalLoop=1;jettySize=auto;html=1;startArrow=none;startFill=0;" parent="1" target="hisHGDNG1swyCPzcrm-j-106" edge="1">
          <mxGeometry relative="1" as="geometry">
            <mxPoint x="1210" y="1790" as="sourcePoint" />
          </mxGeometry>
        </mxCell>
        <mxCell id="hisHGDNG1swyCPzcrm-j-94" value="Course Creation" style="text;html=1;align=center;verticalAlign=middle;resizable=0;points=[];autosize=1;strokeColor=none;fillColor=none;" parent="1" vertex="1">
          <mxGeometry x="1140" y="1868" width="110" height="30" as="geometry" />
        </mxCell>
        <mxCell id="hisHGDNG1swyCPzcrm-j-96" value="Course Modification Interface" style="text;html=1;align=center;verticalAlign=middle;resizable=0;points=[];autosize=1;strokeColor=none;fillColor=none;" parent="1" vertex="1">
          <mxGeometry x="1100" y="2048" width="180" height="30" as="geometry" />
        </mxCell>
        <mxCell id="hisHGDNG1swyCPzcrm-j-106" value="Course Controller" style="text;html=1;align=center;verticalAlign=middle;resizable=0;points=[];autosize=1;strokeColor=none;fillColor=none;" parent="1" vertex="1">
          <mxGeometry x="1150" y="1700" width="120" height="30" as="geometry" />
        </mxCell>
        <mxCell id="hisHGDNG1swyCPzcrm-j-115" value="Course" style="text;html=1;align=center;verticalAlign=middle;resizable=0;points=[];autosize=1;strokeColor=none;fillColor=none;" parent="1" vertex="1">
          <mxGeometry x="1390" y="1870" width="60" height="30" as="geometry" />
        </mxCell>
        <mxCell id="hisHGDNG1swyCPzcrm-j-120" style="edgeStyle=orthogonalEdgeStyle;rounded=0;orthogonalLoop=1;jettySize=auto;html=1;entryX=0.498;entryY=-0.011;entryDx=0;entryDy=0;entryPerimeter=0;startArrow=none;startFill=0;" parent="1" edge="1">
          <mxGeometry relative="1" as="geometry">
            <mxPoint x="1245" y="1660" as="sourcePoint" />
            <mxPoint x="1419.8400000000001" y="1789.12" as="targetPoint" />
          </mxGeometry>
        </mxCell>
        <mxCell id="hisHGDNG1swyCPzcrm-j-126" style="rounded=0;orthogonalLoop=1;jettySize=auto;html=1;entryX=0.028;entryY=0.341;entryDx=0;entryDy=0;entryPerimeter=0;" parent="1" source="hisHGDNG1swyCPzcrm-j-67" edge="1">
          <mxGeometry relative="1" as="geometry">
            <mxPoint x="1167.24" y="1997.2799999999997" as="targetPoint" />
          </mxGeometry>
        </mxCell>
        <mxCell id="hisHGDNG1swyCPzcrm-j-127" style="edgeStyle=orthogonalEdgeStyle;rounded=0;orthogonalLoop=1;jettySize=auto;html=1;entryX=1;entryY=0.512;entryDx=0;entryDy=0;entryPerimeter=0;" parent="1" edge="1">
          <mxGeometry relative="1" as="geometry">
            <Array as="points">
              <mxPoint x="1310" y="2010" />
              <mxPoint x="1310" y="1700" />
              <mxPoint x="1245" y="1700" />
            </Array>
            <mxPoint x="1245" y="2010" as="sourcePoint" />
            <mxPoint x="1245" y="1660.96" as="targetPoint" />
          </mxGeometry>
        </mxCell>
        <mxCell id="hisHGDNG1swyCPzcrm-j-128" value="&lt;font style=&quot;font-size: 44px;&quot;&gt;Deliverable Three:&lt;/font&gt;" style="text;html=1;align=center;verticalAlign=middle;resizable=0;points=[];autosize=1;strokeColor=none;fillColor=none;" parent="1" vertex="1">
          <mxGeometry x="865" y="2240" width="380" height="70" as="geometry" />
        </mxCell>
        <mxCell id="PSQt965Y0i8H_P7t0gFI-1" value="Name: Apply course overload" style="text;strokeColor=none;align=center;fillColor=none;html=1;verticalAlign=middle;whiteSpace=wrap;rounded=0;" parent="1" vertex="1">
          <mxGeometry x="1840" y="-240" width="190" height="30" as="geometry" />
        </mxCell>
        <mxCell id="PSQt965Y0i8H_P7t0gFI-3" value="ID: UC 01" style="text;html=1;align=center;verticalAlign=middle;resizable=0;points=[];autosize=1;strokeColor=none;fillColor=none;" parent="1" vertex="1">
          <mxGeometry x="1840" y="-200" width="80" height="30" as="geometry" />
        </mxCell>
        <mxCell id="PSQt965Y0i8H_P7t0gFI-4" value="Preconditions:" style="text;html=1;align=center;verticalAlign=middle;resizable=0;points=[];autosize=1;strokeColor=none;fillColor=none;" parent="1" vertex="1">
          <mxGeometry x="1840" y="-160" width="100" height="30" as="geometry" />
        </mxCell>
        <mxCell id="PSQt965Y0i8H_P7t0gFI-5" value="* The student is enrolled in the university" style="text;html=1;align=center;verticalAlign=middle;resizable=0;points=[];autosize=1;strokeColor=none;fillColor=none;" parent="1" vertex="1">
          <mxGeometry x="1860" y="-130" width="240" height="30" as="geometry" />
        </mxCell>
        <mxCell id="PSQt965Y0i8H_P7t0gFI-6" value="* The student is enrolled in the full time program" style="text;html=1;align=center;verticalAlign=middle;resizable=0;points=[];autosize=1;strokeColor=none;fillColor=none;" parent="1" vertex="1">
          <mxGeometry x="1860" y="-100" width="280" height="30" as="geometry" />
        </mxCell>
        <mxCell id="PSQt965Y0i8H_P7t0gFI-7" value="Postconditions:" style="text;html=1;align=center;verticalAlign=middle;resizable=0;points=[];autosize=1;strokeColor=none;fillColor=none;" parent="1" vertex="1">
          <mxGeometry x="1840" y="-60" width="100" height="30" as="geometry" />
        </mxCell>
        <mxCell id="PSQt965Y0i8H_P7t0gFI-9" value="* None" style="text;html=1;align=center;verticalAlign=middle;resizable=0;points=[];autosize=1;strokeColor=none;fillColor=none;" parent="1" vertex="1">
          <mxGeometry x="1860" y="-32" width="60" height="30" as="geometry" />
        </mxCell>
        <mxCell id="PSQt965Y0i8H_P7t0gFI-10" value="User Intention:" style="text;html=1;align=center;verticalAlign=middle;resizable=0;points=[];autosize=1;strokeColor=none;fillColor=none;" parent="1" vertex="1">
          <mxGeometry x="1840" width="100" height="30" as="geometry" />
        </mxCell>
        <mxCell id="PSQt965Y0i8H_P7t0gFI-11" value="Students Login the System" style="text;html=1;align=center;verticalAlign=middle;resizable=0;points=[];autosize=1;strokeColor=none;fillColor=none;" parent="1" vertex="1">
          <mxGeometry x="1860" y="40" width="170" height="30" as="geometry" />
        </mxCell>
        <mxCell id="PSQt965Y0i8H_P7t0gFI-12" value="Students Select Register for courses" style="text;html=1;align=center;verticalAlign=middle;resizable=0;points=[];autosize=1;strokeColor=none;fillColor=none;" parent="1" vertex="1">
          <mxGeometry x="1860" y="70" width="220" height="30" as="geometry" />
        </mxCell>
        <mxCell id="PSQt965Y0i8H_P7t0gFI-13" value="Students Search courses" style="text;html=1;align=center;verticalAlign=middle;resizable=0;points=[];autosize=1;strokeColor=none;fillColor=none;" parent="1" vertex="1">
          <mxGeometry x="1860" y="100" width="160" height="30" as="geometry" />
        </mxCell>
        <mxCell id="PSQt965Y0i8H_P7t0gFI-14" value="Students Select courses" style="text;html=1;align=center;verticalAlign=middle;resizable=0;points=[];autosize=1;strokeColor=none;fillColor=none;" parent="1" vertex="1">
          <mxGeometry x="1860" y="130" width="150" height="30" as="geometry" />
        </mxCell>
        <mxCell id="PSQt965Y0i8H_P7t0gFI-15" value="Students Select the section and lab (if needed)" style="text;html=1;align=center;verticalAlign=middle;resizable=0;points=[];autosize=1;strokeColor=none;fillColor=none;" parent="1" vertex="1">
          <mxGeometry x="1860" y="160" width="270" height="30" as="geometry" />
        </mxCell>
        <mxCell id="PSQt965Y0i8H_P7t0gFI-16" value="System Print the enrollment status (Pending in this case)" style="text;html=1;align=center;verticalAlign=middle;resizable=0;points=[];autosize=1;strokeColor=none;fillColor=none;" parent="1" vertex="1">
          <mxGeometry x="1860" y="190" width="320" height="30" as="geometry" />
        </mxCell>
        <mxCell id="PSQt965Y0i8H_P7t0gFI-17" value="System Send email to department" style="text;html=1;align=center;verticalAlign=middle;resizable=0;points=[];autosize=1;strokeColor=none;fillColor=none;" parent="1" vertex="1">
          <mxGeometry x="1860" y="220" width="200" height="30" as="geometry" />
        </mxCell>
        <mxCell id="PSQt965Y0i8H_P7t0gFI-18" value="Wait for the consent of department" style="text;html=1;align=center;verticalAlign=middle;resizable=0;points=[];autosize=1;strokeColor=none;fillColor=none;" parent="1" vertex="1">
          <mxGeometry x="1860" y="250" width="210" height="30" as="geometry" />
        </mxCell>
        <mxCell id="PSQt965Y0i8H_P7t0gFI-19" value="System Print the enrollment status/ Confirmation" style="text;html=1;align=center;verticalAlign=middle;resizable=0;points=[];autosize=1;strokeColor=none;fillColor=none;" parent="1" vertex="1">
          <mxGeometry x="1860" y="280" width="280" height="30" as="geometry" />
        </mxCell>
        <mxCell id="Eh7DuvZM0GZrgtrv92i9-1" value="" style="shape=umlActor;verticalLabelPosition=bottom;verticalAlign=top;html=1;outlineConnect=0;" parent="1" vertex="1">
          <mxGeometry x="1000" y="1800" width="30" height="60" as="geometry" />
        </mxCell>
        <mxCell id="Eh7DuvZM0GZrgtrv92i9-2" value="" style="shape=umlActor;verticalLabelPosition=bottom;verticalAlign=top;html=1;outlineConnect=0;" parent="1" vertex="1">
          <mxGeometry x="940" y="1270" width="40" height="70" as="geometry" />
        </mxCell>
        <mxCell id="Eh7DuvZM0GZrgtrv92i9-3" value="Class" style="swimlane;fontStyle=1;align=center;verticalAlign=top;childLayout=stackLayout;horizontal=1;startSize=26;horizontalStack=0;resizeParent=1;resizeParentMax=0;resizeLast=0;collapsible=1;marginBottom=0;whiteSpace=wrap;html=1;" parent="1" vertex="1">
          <mxGeometry x="880" y="2360" width="160" height="86" as="geometry" />
        </mxCell>
        <mxCell id="Eh7DuvZM0GZrgtrv92i9-4" value="Responsibility" style="text;strokeColor=none;fillColor=none;align=left;verticalAlign=top;spacingLeft=4;spacingRight=4;overflow=hidden;rotatable=0;points=[[0,0.5],[1,0.5]];portConstraint=eastwest;whiteSpace=wrap;html=1;" parent="Eh7DuvZM0GZrgtrv92i9-3" vertex="1">
          <mxGeometry y="26" width="160" height="26" as="geometry" />
        </mxCell>
        <mxCell id="Eh7DuvZM0GZrgtrv92i9-5" value="" style="line;strokeWidth=1;fillColor=none;align=left;verticalAlign=middle;spacingTop=-1;spacingLeft=3;spacingRight=3;rotatable=0;labelPosition=right;points=[];portConstraint=eastwest;strokeColor=inherit;" parent="Eh7DuvZM0GZrgtrv92i9-3" vertex="1">
          <mxGeometry y="52" width="160" height="8" as="geometry" />
        </mxCell>
        <mxCell id="Eh7DuvZM0GZrgtrv92i9-6" value="Collaboration" style="text;strokeColor=none;fillColor=none;align=left;verticalAlign=top;spacingLeft=4;spacingRight=4;overflow=hidden;rotatable=0;points=[[0,0.5],[1,0.5]];portConstraint=eastwest;whiteSpace=wrap;html=1;" parent="Eh7DuvZM0GZrgtrv92i9-3" vertex="1">
          <mxGeometry y="60" width="160" height="26" as="geometry" />
        </mxCell>
        <mxCell id="Eh7DuvZM0GZrgtrv92i9-7" value="Boundary Object" style="shape=umlBoundary;whiteSpace=wrap;html=1;" parent="1" vertex="1">
          <mxGeometry x="1040" y="1270" width="100" height="80" as="geometry" />
        </mxCell>
        <mxCell id="Eh7DuvZM0GZrgtrv92i9-8" value="Control Object" style="ellipse;shape=umlControl;whiteSpace=wrap;html=1;" parent="1" vertex="1">
          <mxGeometry x="1210" y="1270" width="70" height="80" as="geometry" />
        </mxCell>
        <mxCell id="Eh7DuvZM0GZrgtrv92i9-9" value="Entity Object" style="ellipse;shape=umlEntity;whiteSpace=wrap;html=1;" parent="1" vertex="1">
          <mxGeometry x="1360" y="1270" width="80" height="80" as="geometry" />
        </mxCell>
        <mxCell id="Eh7DuvZM0GZrgtrv92i9-10" value="Boundary Object" style="shape=umlBoundary;whiteSpace=wrap;html=1;" parent="1" vertex="1">
          <mxGeometry x="1150" y="1790" width="100" height="80" as="geometry" />
        </mxCell>
        <mxCell id="1756NLtrL8oD6QOpC3J1-4" style="edgeStyle=orthogonalEdgeStyle;rounded=0;orthogonalLoop=1;jettySize=auto;html=1;startArrow=none;startFill=0;" parent="1" source="Eh7DuvZM0GZrgtrv92i9-11" target="1756NLtrL8oD6QOpC3J1-2" edge="1">
          <mxGeometry relative="1" as="geometry">
            <Array as="points">
              <mxPoint x="1400" y="1640" />
              <mxPoint x="1400" y="1640" />
            </Array>
          </mxGeometry>
        </mxCell>
        <mxCell id="1756NLtrL8oD6QOpC3J1-13" style="rounded=0;orthogonalLoop=1;jettySize=auto;html=1;startArrow=none;startFill=0;" parent="1" source="Eh7DuvZM0GZrgtrv92i9-11" target="1756NLtrL8oD6QOpC3J1-10" edge="1">
          <mxGeometry relative="1" as="geometry" />
        </mxCell>
        <mxCell id="Eh7DuvZM0GZrgtrv92i9-11" value="Control Object" style="ellipse;shape=umlControl;whiteSpace=wrap;html=1;" parent="1" vertex="1">
          <mxGeometry x="1170" y="1620" width="70" height="80" as="geometry" />
        </mxCell>
        <mxCell id="Eh7DuvZM0GZrgtrv92i9-12" value="Entity Object" style="ellipse;shape=umlEntity;whiteSpace=wrap;html=1;" parent="1" vertex="1">
          <mxGeometry x="1380" y="1790" width="80" height="80" as="geometry" />
        </mxCell>
        <mxCell id="Eh7DuvZM0GZrgtrv92i9-13" value="Boundary Object" style="shape=umlBoundary;whiteSpace=wrap;html=1;" parent="1" vertex="1">
          <mxGeometry x="1150" y="1970" width="100" height="80" as="geometry" />
        </mxCell>
        <mxCell id="Eh7DuvZM0GZrgtrv92i9-19" value="Course" style="swimlane;fontStyle=1;align=center;verticalAlign=top;childLayout=stackLayout;horizontal=1;startSize=26;horizontalStack=0;resizeParent=1;resizeParentMax=0;resizeLast=0;collapsible=1;marginBottom=0;whiteSpace=wrap;html=1;" parent="1" vertex="1">
          <mxGeometry x="880" y="2480" width="160" height="270" as="geometry" />
        </mxCell>
        <mxCell id="Eh7DuvZM0GZrgtrv92i9-20" value="Course name&lt;br&gt;Assigned faculty&lt;br&gt;Course description&lt;br&gt;Course credit hours&lt;br&gt;Course location&lt;br&gt;Course time schedule&lt;br&gt;Capacity&lt;br&gt;Status&lt;br&gt;Prerequisites&lt;br&gt;Number of sections&lt;br&gt;" style="text;strokeColor=none;fillColor=none;align=left;verticalAlign=top;spacingLeft=4;spacingRight=4;overflow=hidden;rotatable=0;points=[[0,0.5],[1,0.5]];portConstraint=eastwest;whiteSpace=wrap;html=1;" parent="Eh7DuvZM0GZrgtrv92i9-19" vertex="1">
          <mxGeometry y="26" width="160" height="164" as="geometry" />
        </mxCell>
        <mxCell id="Eh7DuvZM0GZrgtrv92i9-21" value="" style="line;strokeWidth=1;fillColor=none;align=left;verticalAlign=middle;spacingTop=-1;spacingLeft=3;spacingRight=3;rotatable=0;labelPosition=right;points=[];portConstraint=eastwest;strokeColor=inherit;" parent="Eh7DuvZM0GZrgtrv92i9-19" vertex="1">
          <mxGeometry y="190" width="160" height="8" as="geometry" />
        </mxCell>
        <mxCell id="Eh7DuvZM0GZrgtrv92i9-22" value="Section&lt;br&gt;Student&lt;br&gt;Faculty&lt;br&gt;Classroom" style="text;strokeColor=none;fillColor=none;align=left;verticalAlign=top;spacingLeft=4;spacingRight=4;overflow=hidden;rotatable=0;points=[[0,0.5],[1,0.5]];portConstraint=eastwest;whiteSpace=wrap;html=1;" parent="Eh7DuvZM0GZrgtrv92i9-19" vertex="1">
          <mxGeometry y="198" width="160" height="72" as="geometry" />
        </mxCell>
        <mxCell id="Eh7DuvZM0GZrgtrv92i9-23" value="Section" style="swimlane;fontStyle=1;align=center;verticalAlign=top;childLayout=stackLayout;horizontal=1;startSize=26;horizontalStack=0;resizeParent=1;resizeParentMax=0;resizeLast=0;collapsible=1;marginBottom=0;whiteSpace=wrap;html=1;" parent="1" vertex="1">
          <mxGeometry x="1080" y="2480" width="160" height="180" as="geometry" />
        </mxCell>
        <mxCell id="Eh7DuvZM0GZrgtrv92i9-24" value="Section schedule&lt;br&gt;Section location&lt;br&gt;Status&lt;br&gt;Assigned faculty" style="text;strokeColor=none;fillColor=none;align=left;verticalAlign=top;spacingLeft=4;spacingRight=4;overflow=hidden;rotatable=0;points=[[0,0.5],[1,0.5]];portConstraint=eastwest;whiteSpace=wrap;html=1;" parent="Eh7DuvZM0GZrgtrv92i9-23" vertex="1">
          <mxGeometry y="26" width="160" height="74" as="geometry" />
        </mxCell>
        <mxCell id="Eh7DuvZM0GZrgtrv92i9-25" value="" style="line;strokeWidth=1;fillColor=none;align=left;verticalAlign=middle;spacingTop=-1;spacingLeft=3;spacingRight=3;rotatable=0;labelPosition=right;points=[];portConstraint=eastwest;strokeColor=inherit;" parent="Eh7DuvZM0GZrgtrv92i9-23" vertex="1">
          <mxGeometry y="100" width="160" height="8" as="geometry" />
        </mxCell>
        <mxCell id="Eh7DuvZM0GZrgtrv92i9-26" value="Classroom&lt;br&gt;Course&lt;br&gt;Faculty&lt;br&gt;Student" style="text;strokeColor=none;fillColor=none;align=left;verticalAlign=top;spacingLeft=4;spacingRight=4;overflow=hidden;rotatable=0;points=[[0,0.5],[1,0.5]];portConstraint=eastwest;whiteSpace=wrap;html=1;" parent="Eh7DuvZM0GZrgtrv92i9-23" vertex="1">
          <mxGeometry y="108" width="160" height="72" as="geometry" />
        </mxCell>
        <mxCell id="Eh7DuvZM0GZrgtrv92i9-27" value="Classroom" style="swimlane;fontStyle=1;align=center;verticalAlign=top;childLayout=stackLayout;horizontal=1;startSize=26;horizontalStack=0;resizeParent=1;resizeParentMax=0;resizeLast=0;collapsible=1;marginBottom=0;whiteSpace=wrap;html=1;" parent="1" vertex="1">
          <mxGeometry x="1280" y="2480" width="160" height="108" as="geometry" />
        </mxCell>
        <mxCell id="Eh7DuvZM0GZrgtrv92i9-28" value="Physical location&lt;br&gt;Room capacity&lt;br&gt;Building name&lt;br&gt;Room number" style="text;strokeColor=none;fillColor=none;align=left;verticalAlign=top;spacingLeft=4;spacingRight=4;overflow=hidden;rotatable=0;points=[[0,0.5],[1,0.5]];portConstraint=eastwest;whiteSpace=wrap;html=1;" parent="Eh7DuvZM0GZrgtrv92i9-27" vertex="1">
          <mxGeometry y="26" width="160" height="74" as="geometry" />
        </mxCell>
        <mxCell id="Eh7DuvZM0GZrgtrv92i9-29" value="" style="line;strokeWidth=1;fillColor=none;align=left;verticalAlign=middle;spacingTop=-1;spacingLeft=3;spacingRight=3;rotatable=0;labelPosition=right;points=[];portConstraint=eastwest;strokeColor=inherit;" parent="Eh7DuvZM0GZrgtrv92i9-27" vertex="1">
          <mxGeometry y="100" width="160" height="8" as="geometry" />
        </mxCell>
        <mxCell id="Eh7DuvZM0GZrgtrv92i9-31" value="Student" style="swimlane;fontStyle=1;align=center;verticalAlign=top;childLayout=stackLayout;horizontal=1;startSize=26;horizontalStack=0;resizeParent=1;resizeParentMax=0;resizeLast=0;collapsible=1;marginBottom=0;whiteSpace=wrap;html=1;" parent="1" vertex="1">
          <mxGeometry x="880" y="2800" width="160" height="220" as="geometry" />
        </mxCell>
        <mxCell id="Eh7DuvZM0GZrgtrv92i9-32" value="Register the course&lt;br&gt;Drop the course&lt;br&gt;Apply course overload&lt;br&gt;View schedule&lt;br&gt;Print transcript&lt;br&gt;Search courses" style="text;strokeColor=none;fillColor=none;align=left;verticalAlign=top;spacingLeft=4;spacingRight=4;overflow=hidden;rotatable=0;points=[[0,0.5],[1,0.5]];portConstraint=eastwest;whiteSpace=wrap;html=1;" parent="Eh7DuvZM0GZrgtrv92i9-31" vertex="1">
          <mxGeometry y="26" width="160" height="104" as="geometry" />
        </mxCell>
        <mxCell id="Eh7DuvZM0GZrgtrv92i9-33" value="" style="line;strokeWidth=1;fillColor=none;align=left;verticalAlign=middle;spacingTop=-1;spacingLeft=3;spacingRight=3;rotatable=0;labelPosition=right;points=[];portConstraint=eastwest;strokeColor=inherit;" parent="Eh7DuvZM0GZrgtrv92i9-31" vertex="1">
          <mxGeometry y="130" width="160" height="8" as="geometry" />
        </mxCell>
        <mxCell id="Eh7DuvZM0GZrgtrv92i9-34" value="RegisterManager&lt;br&gt;Course&lt;br&gt;Section&lt;br&gt;Schedule&lt;br&gt;Transcript" style="text;strokeColor=none;fillColor=none;align=left;verticalAlign=top;spacingLeft=4;spacingRight=4;overflow=hidden;rotatable=0;points=[[0,0.5],[1,0.5]];portConstraint=eastwest;whiteSpace=wrap;html=1;" parent="Eh7DuvZM0GZrgtrv92i9-31" vertex="1">
          <mxGeometry y="138" width="160" height="82" as="geometry" />
        </mxCell>
        <mxCell id="Eh7DuvZM0GZrgtrv92i9-35" value="Faculty" style="swimlane;fontStyle=1;align=center;verticalAlign=top;childLayout=stackLayout;horizontal=1;startSize=26;horizontalStack=0;resizeParent=1;resizeParentMax=0;resizeLast=0;collapsible=1;marginBottom=0;whiteSpace=wrap;html=1;" parent="1" vertex="1">
          <mxGeometry x="1080" y="2800" width="160" height="180" as="geometry" />
        </mxCell>
        <mxCell id="Eh7DuvZM0GZrgtrv92i9-36" value="Get student list&lt;br&gt;Register a course&lt;br&gt;Deal with registration request&lt;br&gt;Report students grades" style="text;strokeColor=none;fillColor=none;align=left;verticalAlign=top;spacingLeft=4;spacingRight=4;overflow=hidden;rotatable=0;points=[[0,0.5],[1,0.5]];portConstraint=eastwest;whiteSpace=wrap;html=1;" parent="Eh7DuvZM0GZrgtrv92i9-35" vertex="1">
          <mxGeometry y="26" width="160" height="84" as="geometry" />
        </mxCell>
        <mxCell id="Eh7DuvZM0GZrgtrv92i9-37" value="" style="line;strokeWidth=1;fillColor=none;align=left;verticalAlign=middle;spacingTop=-1;spacingLeft=3;spacingRight=3;rotatable=0;labelPosition=right;points=[];portConstraint=eastwest;strokeColor=inherit;" parent="Eh7DuvZM0GZrgtrv92i9-35" vertex="1">
          <mxGeometry y="110" width="160" height="8" as="geometry" />
        </mxCell>
        <mxCell id="Eh7DuvZM0GZrgtrv92i9-38" value="RegisterManager&lt;br&gt;Course&lt;br&gt;GradeReport" style="text;strokeColor=none;fillColor=none;align=left;verticalAlign=top;spacingLeft=4;spacingRight=4;overflow=hidden;rotatable=0;points=[[0,0.5],[1,0.5]];portConstraint=eastwest;whiteSpace=wrap;html=1;" parent="Eh7DuvZM0GZrgtrv92i9-35" vertex="1">
          <mxGeometry y="118" width="160" height="62" as="geometry" />
        </mxCell>
        <mxCell id="Eh7DuvZM0GZrgtrv92i9-39" value="Administrator" style="swimlane;fontStyle=1;align=center;verticalAlign=top;childLayout=stackLayout;horizontal=1;startSize=26;horizontalStack=0;resizeParent=1;resizeParentMax=0;resizeLast=0;collapsible=1;marginBottom=0;whiteSpace=wrap;html=1;" parent="1" vertex="1">
          <mxGeometry x="1280" y="2800" width="160" height="250" as="geometry" />
        </mxCell>
        <mxCell id="Eh7DuvZM0GZrgtrv92i9-40" value="Add new courses&lt;br&gt;Assign course schedule&lt;br&gt;Delete the course&lt;br&gt;Deal with overload request&lt;br&gt;Control registration&lt;br&gt;Assign course/section location&lt;br&gt;Modify students in the system&amp;nbsp;" style="text;strokeColor=none;fillColor=none;align=left;verticalAlign=top;spacingLeft=4;spacingRight=4;overflow=hidden;rotatable=0;points=[[0,0.5],[1,0.5]];portConstraint=eastwest;whiteSpace=wrap;html=1;" parent="Eh7DuvZM0GZrgtrv92i9-39" vertex="1">
          <mxGeometry y="26" width="160" height="144" as="geometry" />
        </mxCell>
        <mxCell id="Eh7DuvZM0GZrgtrv92i9-41" value="" style="line;strokeWidth=1;fillColor=none;align=left;verticalAlign=middle;spacingTop=-1;spacingLeft=3;spacingRight=3;rotatable=0;labelPosition=right;points=[];portConstraint=eastwest;strokeColor=inherit;" parent="Eh7DuvZM0GZrgtrv92i9-39" vertex="1">
          <mxGeometry y="170" width="160" height="8" as="geometry" />
        </mxCell>
        <mxCell id="Eh7DuvZM0GZrgtrv92i9-42" value="Course&lt;br&gt;Section&lt;br&gt;Student&lt;br&gt;Faculty" style="text;strokeColor=none;fillColor=none;align=left;verticalAlign=top;spacingLeft=4;spacingRight=4;overflow=hidden;rotatable=0;points=[[0,0.5],[1,0.5]];portConstraint=eastwest;whiteSpace=wrap;html=1;" parent="Eh7DuvZM0GZrgtrv92i9-39" vertex="1">
          <mxGeometry y="178" width="160" height="72" as="geometry" />
        </mxCell>
        <mxCell id="Eh7DuvZM0GZrgtrv92i9-43" value="Schedule" style="swimlane;fontStyle=1;align=center;verticalAlign=top;childLayout=stackLayout;horizontal=1;startSize=26;horizontalStack=0;resizeParent=1;resizeParentMax=0;resizeLast=0;collapsible=1;marginBottom=0;whiteSpace=wrap;html=1;" parent="1" vertex="1">
          <mxGeometry x="1480" y="2480" width="160" height="78" as="geometry" />
        </mxCell>
        <mxCell id="Eh7DuvZM0GZrgtrv92i9-44" value="Provide visual schedule&lt;br&gt;Identify the time confits" style="text;strokeColor=none;fillColor=none;align=left;verticalAlign=top;spacingLeft=4;spacingRight=4;overflow=hidden;rotatable=0;points=[[0,0.5],[1,0.5]];portConstraint=eastwest;whiteSpace=wrap;html=1;" parent="Eh7DuvZM0GZrgtrv92i9-43" vertex="1">
          <mxGeometry y="26" width="160" height="44" as="geometry" />
        </mxCell>
        <mxCell id="Eh7DuvZM0GZrgtrv92i9-45" value="" style="line;strokeWidth=1;fillColor=none;align=left;verticalAlign=middle;spacingTop=-1;spacingLeft=3;spacingRight=3;rotatable=0;labelPosition=right;points=[];portConstraint=eastwest;strokeColor=inherit;" parent="Eh7DuvZM0GZrgtrv92i9-43" vertex="1">
          <mxGeometry y="70" width="160" height="8" as="geometry" />
        </mxCell>
        <mxCell id="Eh7DuvZM0GZrgtrv92i9-47" value="RegisterManager" style="swimlane;fontStyle=1;align=center;verticalAlign=top;childLayout=stackLayout;horizontal=1;startSize=26;horizontalStack=0;resizeParent=1;resizeParentMax=0;resizeLast=0;collapsible=1;marginBottom=0;whiteSpace=wrap;html=1;" parent="1" vertex="1">
          <mxGeometry x="1680" y="2480" width="160" height="160" as="geometry" />
        </mxCell>
        <mxCell id="Eh7DuvZM0GZrgtrv92i9-48" value="Handel course overload&lt;br&gt;Process course registration" style="text;strokeColor=none;fillColor=none;align=left;verticalAlign=top;spacingLeft=4;spacingRight=4;overflow=hidden;rotatable=0;points=[[0,0.5],[1,0.5]];portConstraint=eastwest;whiteSpace=wrap;html=1;" parent="Eh7DuvZM0GZrgtrv92i9-47" vertex="1">
          <mxGeometry y="26" width="160" height="44" as="geometry" />
        </mxCell>
        <mxCell id="Eh7DuvZM0GZrgtrv92i9-49" value="" style="line;strokeWidth=1;fillColor=none;align=left;verticalAlign=middle;spacingTop=-1;spacingLeft=3;spacingRight=3;rotatable=0;labelPosition=right;points=[];portConstraint=eastwest;strokeColor=inherit;" parent="Eh7DuvZM0GZrgtrv92i9-47" vertex="1">
          <mxGeometry y="70" width="160" height="8" as="geometry" />
        </mxCell>
        <mxCell id="Eh7DuvZM0GZrgtrv92i9-50" value="Student&lt;br&gt;Faculty&lt;br&gt;Course&lt;br&gt;Section" style="text;strokeColor=none;fillColor=none;align=left;verticalAlign=top;spacingLeft=4;spacingRight=4;overflow=hidden;rotatable=0;points=[[0,0.5],[1,0.5]];portConstraint=eastwest;whiteSpace=wrap;html=1;" parent="Eh7DuvZM0GZrgtrv92i9-47" vertex="1">
          <mxGeometry y="78" width="160" height="82" as="geometry" />
        </mxCell>
        <mxCell id="Eh7DuvZM0GZrgtrv92i9-51" value="Transcript" style="swimlane;fontStyle=1;align=center;verticalAlign=top;childLayout=stackLayout;horizontal=1;startSize=26;horizontalStack=0;resizeParent=1;resizeParentMax=0;resizeLast=0;collapsible=1;marginBottom=0;whiteSpace=wrap;html=1;" parent="1" vertex="1">
          <mxGeometry x="1880" y="2480" width="160" height="78" as="geometry" />
        </mxCell>
        <mxCell id="Eh7DuvZM0GZrgtrv92i9-52" value="Calculate GPA&lt;br&gt;Display courses and credit" style="text;strokeColor=none;fillColor=none;align=left;verticalAlign=top;spacingLeft=4;spacingRight=4;overflow=hidden;rotatable=0;points=[[0,0.5],[1,0.5]];portConstraint=eastwest;whiteSpace=wrap;html=1;" parent="Eh7DuvZM0GZrgtrv92i9-51" vertex="1">
          <mxGeometry y="26" width="160" height="44" as="geometry" />
        </mxCell>
        <mxCell id="Eh7DuvZM0GZrgtrv92i9-53" value="" style="line;strokeWidth=1;fillColor=none;align=left;verticalAlign=middle;spacingTop=-1;spacingLeft=3;spacingRight=3;rotatable=0;labelPosition=right;points=[];portConstraint=eastwest;strokeColor=inherit;" parent="Eh7DuvZM0GZrgtrv92i9-51" vertex="1">
          <mxGeometry y="70" width="160" height="8" as="geometry" />
        </mxCell>
        <mxCell id="Eh7DuvZM0GZrgtrv92i9-55" value="GradeReport" style="swimlane;fontStyle=1;align=center;verticalAlign=top;childLayout=stackLayout;horizontal=1;startSize=26;horizontalStack=0;resizeParent=1;resizeParentMax=0;resizeLast=0;collapsible=1;marginBottom=0;whiteSpace=wrap;html=1;" parent="1" vertex="1">
          <mxGeometry x="1480" y="2800" width="160" height="150" as="geometry" />
        </mxCell>
        <mxCell id="Eh7DuvZM0GZrgtrv92i9-56" value="Provide grades detail for student&lt;br&gt;Collect students&#39; grade from faculty" style="text;strokeColor=none;fillColor=none;align=left;verticalAlign=top;spacingLeft=4;spacingRight=4;overflow=hidden;rotatable=0;points=[[0,0.5],[1,0.5]];portConstraint=eastwest;whiteSpace=wrap;html=1;" parent="Eh7DuvZM0GZrgtrv92i9-55" vertex="1">
          <mxGeometry y="26" width="160" height="74" as="geometry" />
        </mxCell>
        <mxCell id="Eh7DuvZM0GZrgtrv92i9-57" value="" style="line;strokeWidth=1;fillColor=none;align=left;verticalAlign=middle;spacingTop=-1;spacingLeft=3;spacingRight=3;rotatable=0;labelPosition=right;points=[];portConstraint=eastwest;strokeColor=inherit;" parent="Eh7DuvZM0GZrgtrv92i9-55" vertex="1">
          <mxGeometry y="100" width="160" height="8" as="geometry" />
        </mxCell>
        <mxCell id="Eh7DuvZM0GZrgtrv92i9-58" value="Student" style="text;strokeColor=none;fillColor=none;align=left;verticalAlign=top;spacingLeft=4;spacingRight=4;overflow=hidden;rotatable=0;points=[[0,0.5],[1,0.5]];portConstraint=eastwest;whiteSpace=wrap;html=1;" parent="Eh7DuvZM0GZrgtrv92i9-55" vertex="1">
          <mxGeometry y="108" width="160" height="42" as="geometry" />
        </mxCell>
        <mxCell id="1756NLtrL8oD6QOpC3J1-2" value="Control Object" style="ellipse;shape=umlControl;whiteSpace=wrap;html=1;" parent="1" vertex="1">
          <mxGeometry x="1560" y="1620" width="70" height="80" as="geometry" />
        </mxCell>
        <mxCell id="1756NLtrL8oD6QOpC3J1-3" value="Section Controller" style="text;html=1;align=center;verticalAlign=middle;resizable=0;points=[];autosize=1;strokeColor=none;fillColor=none;" parent="1" vertex="1">
          <mxGeometry x="1540" y="1700" width="120" height="30" as="geometry" />
        </mxCell>
        <mxCell id="1756NLtrL8oD6QOpC3J1-5" value="Section" style="text;html=1;align=center;verticalAlign=middle;resizable=0;points=[];autosize=1;strokeColor=none;fillColor=none;" parent="1" vertex="1">
          <mxGeometry x="1579" y="1870" width="60" height="30" as="geometry" />
        </mxCell>
        <mxCell id="1756NLtrL8oD6QOpC3J1-6" value="Entity Object" style="ellipse;shape=umlEntity;whiteSpace=wrap;html=1;" parent="1" vertex="1">
          <mxGeometry x="1561" y="1790" width="80" height="80" as="geometry" />
        </mxCell>
        <mxCell id="1756NLtrL8oD6QOpC3J1-7" style="edgeStyle=orthogonalEdgeStyle;rounded=0;orthogonalLoop=1;jettySize=auto;html=1;entryX=0.487;entryY=-0.006;entryDx=0;entryDy=0;entryPerimeter=0;startArrow=none;startFill=0;" parent="1" source="1756NLtrL8oD6QOpC3J1-3" target="1756NLtrL8oD6QOpC3J1-6" edge="1">
          <mxGeometry relative="1" as="geometry" />
        </mxCell>
        <mxCell id="1756NLtrL8oD6QOpC3J1-8" value="Control Object" style="ellipse;shape=umlControl;whiteSpace=wrap;html=1;" parent="1" vertex="1">
          <mxGeometry x="1169" y="1450" width="70" height="80" as="geometry" />
        </mxCell>
        <mxCell id="1756NLtrL8oD6QOpC3J1-10" value="Course Schedule Controller" style="text;html=1;align=center;verticalAlign=middle;resizable=0;points=[];autosize=1;strokeColor=none;fillColor=none;" parent="1" vertex="1">
          <mxGeometry x="1119" y="1530" width="170" height="30" as="geometry" />
        </mxCell>
        <mxCell id="1756NLtrL8oD6QOpC3J1-20" style="edgeStyle=orthogonalEdgeStyle;rounded=0;orthogonalLoop=1;jettySize=auto;html=1;startArrow=none;startFill=0;" parent="1" source="1756NLtrL8oD6QOpC3J1-11" target="1756NLtrL8oD6QOpC3J1-18" edge="1">
          <mxGeometry relative="1" as="geometry" />
        </mxCell>
        <mxCell id="1756NLtrL8oD6QOpC3J1-11" value="Control Object" style="ellipse;shape=umlControl;whiteSpace=wrap;html=1;" parent="1" vertex="1">
          <mxGeometry x="1550" y="1450" width="70" height="80" as="geometry" />
        </mxCell>
        <mxCell id="1756NLtrL8oD6QOpC3J1-12" value="Section Schedule Controller" style="text;html=1;align=center;verticalAlign=middle;resizable=0;points=[];autosize=1;strokeColor=none;fillColor=none;" parent="1" vertex="1">
          <mxGeometry x="1500" y="1530" width="170" height="30" as="geometry" />
        </mxCell>
        <mxCell id="1756NLtrL8oD6QOpC3J1-15" value="Entity Object" style="ellipse;shape=umlEntity;whiteSpace=wrap;html=1;" parent="1" vertex="1">
          <mxGeometry x="979" y="1450" width="80" height="80" as="geometry" />
        </mxCell>
        <mxCell id="1756NLtrL8oD6QOpC3J1-16" value="Course Location &amp;amp; Time" style="text;html=1;align=center;verticalAlign=middle;resizable=0;points=[];autosize=1;strokeColor=none;fillColor=none;" parent="1" vertex="1">
          <mxGeometry x="949" y="1538" width="150" height="30" as="geometry" />
        </mxCell>
        <mxCell id="1756NLtrL8oD6QOpC3J1-17" style="edgeStyle=orthogonalEdgeStyle;rounded=0;orthogonalLoop=1;jettySize=auto;html=1;entryX=1.058;entryY=0.502;entryDx=0;entryDy=0;entryPerimeter=0;startArrow=none;startFill=0;" parent="1" source="1756NLtrL8oD6QOpC3J1-8" target="1756NLtrL8oD6QOpC3J1-15" edge="1">
          <mxGeometry relative="1" as="geometry" />
        </mxCell>
        <mxCell id="1756NLtrL8oD6QOpC3J1-18" value="Entity Object" style="ellipse;shape=umlEntity;whiteSpace=wrap;html=1;" parent="1" vertex="1">
          <mxGeometry x="1770" y="1450" width="80" height="80" as="geometry" />
        </mxCell>
        <mxCell id="1756NLtrL8oD6QOpC3J1-19" value="Section Location &amp;amp; Time" style="text;html=1;align=center;verticalAlign=middle;resizable=0;points=[];autosize=1;strokeColor=none;fillColor=none;" parent="1" vertex="1">
          <mxGeometry x="1740" y="1538" width="150" height="30" as="geometry" />
        </mxCell>
        <mxCell id="1756NLtrL8oD6QOpC3J1-21" style="edgeStyle=orthogonalEdgeStyle;rounded=0;orthogonalLoop=1;jettySize=auto;html=1;entryX=0.564;entryY=0.942;entryDx=0;entryDy=0;entryPerimeter=0;startArrow=none;startFill=0;" parent="1" target="1756NLtrL8oD6QOpC3J1-12" edge="1">
          <mxGeometry relative="1" as="geometry">
            <mxPoint x="1595" y="1620" as="sourcePoint" />
          </mxGeometry>
        </mxCell>
        <mxCell id="1756NLtrL8oD6QOpC3J1-22" value="Context Map - Identified high-level bounded context:" style="text;html=1;align=center;verticalAlign=middle;resizable=0;points=[];autosize=1;strokeColor=none;fillColor=none;" parent="1" vertex="1">
          <mxGeometry x="2320" y="-240" width="300" height="30" as="geometry" />
        </mxCell>
        <mxCell id="1756NLtrL8oD6QOpC3J1-31" value="&lt;meta charset=&quot;utf-8&quot;&gt;&lt;span style=&quot;color: rgb(0, 0, 0); font-family: Helvetica; font-size: 12px; font-style: normal; font-variant-ligatures: normal; font-variant-caps: normal; font-weight: 400; letter-spacing: normal; orphans: 2; text-align: center; text-indent: 0px; text-transform: none; widows: 2; word-spacing: 0px; -webkit-text-stroke-width: 0px; background-color: rgb(251, 251, 251); text-decoration-thickness: initial; text-decoration-style: initial; text-decoration-color: initial; float: none; display: inline !important;&quot;&gt;Account system&lt;/span&gt;" style="ellipse;whiteSpace=wrap;html=1;" parent="1" vertex="1">
          <mxGeometry x="2320" y="-200" width="210" height="60" as="geometry" />
        </mxCell>
        <mxCell id="1756NLtrL8oD6QOpC3J1-32" value="&lt;meta charset=&quot;utf-8&quot;&gt;&lt;span style=&quot;color: rgb(0, 0, 0); font-family: Helvetica; font-size: 12px; font-style: normal; font-variant-ligatures: normal; font-variant-caps: normal; font-weight: 400; letter-spacing: normal; orphans: 2; text-align: center; text-indent: 0px; text-transform: none; widows: 2; word-spacing: 0px; -webkit-text-stroke-width: 0px; background-color: rgb(251, 251, 251); text-decoration-thickness: initial; text-decoration-style: initial; text-decoration-color: initial; float: none; display: inline !important;&quot;&gt;Account system&lt;/span&gt;" style="ellipse;whiteSpace=wrap;html=1;" parent="1" vertex="1">
          <mxGeometry x="2320" y="-120" width="210" height="60" as="geometry" />
        </mxCell>
        <mxCell id="1756NLtrL8oD6QOpC3J1-33" value="Authentication" style="ellipse;whiteSpace=wrap;html=1;" parent="1" vertex="1">
          <mxGeometry x="2320" y="-120" width="210" height="60" as="geometry" />
        </mxCell>
        <mxCell id="1756NLtrL8oD6QOpC3J1-34" value="Registration management" style="ellipse;whiteSpace=wrap;html=1;" parent="1" vertex="1">
          <mxGeometry x="2320" y="40" width="210" height="60" as="geometry" />
        </mxCell>
        <mxCell id="1756NLtrL8oD6QOpC3J1-35" value="Schedule management" style="ellipse;whiteSpace=wrap;html=1;" parent="1" vertex="1">
          <mxGeometry x="2320" y="120" width="210" height="60" as="geometry" />
        </mxCell>
        <mxCell id="1756NLtrL8oD6QOpC3J1-36" value="&lt;meta charset=&quot;utf-8&quot;&gt;&lt;span style=&quot;color: rgb(0, 0, 0); font-family: Helvetica; font-size: 12px; font-style: normal; font-variant-ligatures: normal; font-variant-caps: normal; font-weight: 400; letter-spacing: normal; orphans: 2; text-align: center; text-indent: 0px; text-transform: none; widows: 2; word-spacing: 0px; -webkit-text-stroke-width: 0px; background-color: rgb(251, 251, 251); text-decoration-thickness: initial; text-decoration-style: initial; text-decoration-color: initial; float: none; display: inline !important;&quot;&gt;Account system&lt;/span&gt;" style="ellipse;whiteSpace=wrap;html=1;" parent="1" vertex="1">
          <mxGeometry x="2320" y="200" width="210" height="60" as="geometry" />
        </mxCell>
        <mxCell id="1756NLtrL8oD6QOpC3J1-37" value="Academic record" style="ellipse;whiteSpace=wrap;html=1;" parent="1" vertex="1">
          <mxGeometry x="2320" y="200" width="210" height="60" as="geometry" />
        </mxCell>
        <mxCell id="1756NLtrL8oD6QOpC3J1-38" value="Payroll Integration" style="ellipse;whiteSpace=wrap;html=1;" parent="1" vertex="1">
          <mxGeometry x="2320" y="280" width="210" height="60" as="geometry" />
        </mxCell>
        <mxCell id="1756NLtrL8oD6QOpC3J1-40" value="Course management" style="ellipse;whiteSpace=wrap;html=1;" parent="1" vertex="1">
          <mxGeometry x="2320" y="-40" width="210" height="60" as="geometry" />
        </mxCell>
        <mxCell id="1756NLtrL8oD6QOpC3J1-41" value="Communication/ Emailing System&amp;nbsp;" style="ellipse;whiteSpace=wrap;html=1;" parent="1" vertex="1">
          <mxGeometry x="2320" y="360" width="210" height="60" as="geometry" />
        </mxCell>
        <mxCell id="-90VWN6ZDOdWhUvmFzOp-1" value="Academic" style="swimlane;fontStyle=1;align=center;verticalAlign=top;childLayout=stackLayout;horizontal=1;startSize=26;horizontalStack=0;resizeParent=1;resizeParentMax=0;resizeLast=0;collapsible=1;marginBottom=0;whiteSpace=wrap;html=1;" vertex="1" parent="1">
          <mxGeometry x="1680" y="2800" width="160" height="160" as="geometry" />
        </mxCell>
        <mxCell id="-90VWN6ZDOdWhUvmFzOp-2" value="Academic Terms&lt;br&gt;Academic Years&lt;br&gt;Letter Credits&lt;br&gt;GPA" style="text;strokeColor=none;fillColor=none;align=left;verticalAlign=top;spacingLeft=4;spacingRight=4;overflow=hidden;rotatable=0;points=[[0,0.5],[1,0.5]];portConstraint=eastwest;whiteSpace=wrap;html=1;" vertex="1" parent="-90VWN6ZDOdWhUvmFzOp-1">
          <mxGeometry y="26" width="160" height="74" as="geometry" />
        </mxCell>
        <mxCell id="-90VWN6ZDOdWhUvmFzOp-3" value="" style="line;strokeWidth=1;fillColor=none;align=left;verticalAlign=middle;spacingTop=-1;spacingLeft=3;spacingRight=3;rotatable=0;labelPosition=right;points=[];portConstraint=eastwest;strokeColor=inherit;" vertex="1" parent="-90VWN6ZDOdWhUvmFzOp-1">
          <mxGeometry y="100" width="160" height="8" as="geometry" />
        </mxCell>
        <mxCell id="-90VWN6ZDOdWhUvmFzOp-4" value="Transcript&lt;br&gt;GradeReport" style="text;strokeColor=none;fillColor=none;align=left;verticalAlign=top;spacingLeft=4;spacingRight=4;overflow=hidden;rotatable=0;points=[[0,0.5],[1,0.5]];portConstraint=eastwest;whiteSpace=wrap;html=1;" vertex="1" parent="-90VWN6ZDOdWhUvmFzOp-1">
          <mxGeometry y="108" width="160" height="52" as="geometry" />
        </mxCell>
      </root>
    </mxGraphModel>
  </diagram>
</mxfile>
